<svg xmlns="http://www.w3.org/2000/svg" viewBox="0 0 200 200" width="180" height="180" role="img" aria-label="诃里诃罗印章">
<defs>
  <path id="at-st-02" d="M 26,100 A 74,74 0 0 1 174,100"/>
  <path id="ab-st-02" d="M 26,100 A 74,74 0 0 0 174,100"/>
  <filter id="rgh-st-02"><feTurbulence type="fractalNoise" baseFrequency="0.045" numOctaves="2" seed="7" result="n"/><feDisplacementMap in="SourceGraphic" in2="n" scale="2.2"/></filter>
  <filter id="mot-st-02"><feTurbulence type="fractalNoise" baseFrequency="0.55" numOctaves="3" seed="11" result="nz"/><feColorMatrix in="nz" type="matrix" values="0 0 0 0 1  0 0 0 0 1  0 0 0 0 1  0 0 0 1.4 -0.15" result="an"/><feComposite in="SourceGraphic" in2="an" operator="in"/></filter>
</defs>
<g filter="url(#rgh-st-02) url(#mot-st-02)" fill="#C03A2B">
  <circle cx="100" cy="100" r="95" fill="none" stroke="#C03A2B" stroke-width="4"/>
  <circle cx="100" cy="100" r="86" fill="none" stroke="#C03A2B" stroke-width="1.2"/>
  <text font-size="15" letter-spacing="2" fill="#C03A2B" font-family="'Kaiti SC','STKaiti','KaiTi',serif"><textPath href="#at-st-02" startOffset="50%" text-anchor="middle">诃里诃罗</textPath></text>
  <text font-size="9.5" letter-spacing="1.5" fill="#C03A2B" font-family="'Kaiti SC','STKaiti','KaiTi',serif"><textPath href="#ab-st-02" startOffset="50%" text-anchor="middle">罗洛士 · 9世纪</textPath></text>
  <g transform="translate(44,44)" style="color:#C03A2B;fill:currentColor;stroke:currentColor"><g fill="none" stroke-width="5" stroke-linecap="round" stroke="currentColor">
          <ellipse cx="56" cy="60" rx="25" ry="31"/>
          <path d="M56 29 v62"/>
          <path d="M35 42 q10 -8 19 -2"/>
          <circle cx="68" cy="40" r="3.5" fill="currentColor" stroke="none"/>
          <path d="M62 30 q7 -8 13 -3"/>
          <path d="M42 64 q5 4 10 0"/><path d="M60 64 q5 4 10 0"/>
          <path d="M49 80 h14"/></g></g>
</g>
</svg>
